<?xml version="1.0" encoding="utf-8"?>
<!-- Generator: Adobe Illustrator 23.0.1, SVG Export Plug-In . SVG Version: 6.00 Build 0)  -->
<svg version="1.1" id="Layer_1" xmlns="http://www.w3.org/2000/svg" xmlns:xlink="http://www.w3.org/1999/xlink" x="0px" y="0px"
	 viewBox="0 0 1024 1024" style="enable-background:new 0 0 1024 1024;" xml:space="preserve">
<style type="text/css">
	.st0{fill:#FFFFFF;}
	.st1{fill:#09090A;}
</style>
<g>
	<rect x="0" width="1024" height="1024"/>
	<g>
		<path class="st0" d="M706.13,550.14c0,163.03-119.33,273.81-296.42,273.81H179.57V277.12h235.59
			C588.35,277.12,706.13,387.88,706.13,550.14z M560.28,551.71c0-94.4-61.64-158.36-148.22-158.36h-89.71V708.5h96.72
			C501.77,708.5,560.28,645.32,560.28,551.71z"/>
	</g>
	<g>
		<path class="st0" d="M805.16,284.57v177.99h-42.69V284.57H805.16z"/>
		<path class="st0" d="M858.22,511.02c-14.65,0-26.63-4.32-38.38-13.43l17.76-29.5c5.98,5.04,11.02,7.19,17.26,7.19
			c7.21,0,12.25-3.35,15.59-9.83l3.14-6.01l-53.73-126.66h43.89l30.94,84.44l27.6-84.44h42.45l-55.67,142.5
			C899.24,499.51,882.68,511.02,858.22,511.02z"/>
	</g>
	<rect x="0" class="st1" width="1024" height="1024"/>
	<g>
		<path class="st0" d="M706.13,550.14c0,163.03-119.33,273.81-296.42,273.81H179.57V277.12h235.59
			C588.35,277.12,706.13,387.88,706.13,550.14z M560.28,551.71c0-94.4-61.64-158.36-148.22-158.36h-89.71V708.5h96.72
			C501.77,708.5,560.28,645.32,560.28,551.71z"/>
	</g>
	<g>
		<path class="st0" d="M805.16,284.57v177.99h-42.69V284.57H805.16z"/>
		<path class="st0" d="M858.22,511.02c-14.65,0-26.63-4.32-38.38-13.43l17.76-29.5c5.98,5.04,11.02,7.19,17.26,7.19
			c7.21,0,12.25-3.35,15.59-9.83l3.14-6.01l-53.73-126.66h43.89l30.94,84.44l27.6-84.44h42.45l-55.67,142.5
			C899.24,499.51,882.68,511.02,858.22,511.02z"/>
	</g>
</g>
</svg>
