<?xml version="1.0" encoding="UTF-8"?>
<svg width="301px" height="39px" viewBox="0 0 301 39" version="1.1" xmlns="http://www.w3.org/2000/svg" xmlns:xlink="http://www.w3.org/1999/xlink">
    <!-- Generator: Sketch 53.2 (72643) - https://sketchapp.com -->
    <title>Group</title>
    <desc>Created with Sketch.</desc>
    <g id="Page-1" stroke="none" stroke-width="1" fill="none" fill-rule="evenodd">
        <g id="logo">
            <g id="Group">
                <path d="M58.006,18.841 L48.006,1.52 C47.78,1.129 47.362,0.887 46.91,0.887 L11.315,0.887 C10.863,0.887 10.445,1.129 10.219,1.52 L0.219,18.841 C-0.007,19.233 -0.007,19.715 0.219,20.107 L10.219,37.428 C10.445,37.819 10.863,38.061 11.315,38.061 L46.91,38.061 C47.362,38.061 47.78,37.819 48.006,37.428 L58.006,20.107 C58.232,19.715 58.232,19.233 58.006,18.841 L58.006,18.841 Z M32.755,32.998 L38.646,22.845 L50.609,22.845 L44.718,32.998 L32.755,32.998 L32.755,32.998 Z M13.507,5.95 L27.662,5.95 L20.585,18.208 L6.43,18.208 L13.507,5.95 L13.507,5.95 Z M6.43,20.74 L21.315,20.74 C21.767,20.74 22.185,20.498 22.411,20.107 L30.585,5.95 L44.718,5.95 L51.795,18.208 L36.91,18.208 C36.458,18.208 36.04,18.45 35.814,18.841 L27.64,32.998 L13.507,32.998 L6.43,20.74 L6.43,20.74 Z" id="Fill-1" fill="#FF0043"></path>
                <path d="M58.006,18.841 L48.006,1.52 C47.78,1.129 47.362,0.887 46.91,0.887 L11.315,0.887 C10.863,0.887 10.445,1.129 10.219,1.52 L0.219,18.841 C-0.007,19.233 -0.007,19.715 0.219,20.107 L10.219,37.428 C10.445,37.819 10.863,38.061 11.315,38.061 L46.91,38.061 C47.362,38.061 47.78,37.819 48.006,37.428 L58.006,20.107 C58.232,19.715 58.232,19.233 58.006,18.841 L58.006,18.841 Z M30.563,32.998 L37.641,20.74 L51.795,20.74 L44.718,32.998 L30.563,32.998 L30.563,32.998 Z M14.627,8.003 L26.444,8.003 L20.585,18.208 L8.768,18.208 L14.627,8.003 L14.627,8.003 Z M6.43,20.74 L21.315,20.74 C21.767,20.74 22.185,20.498 22.411,20.107 L30.585,5.95 L44.718,5.95 L51.795,18.208 L36.91,18.208 C36.458,18.208 36.04,18.45 35.814,18.841 L27.64,32.998 L13.507,32.998 L6.43,20.74 L6.43,20.74 Z" id="Fill-2" fill="#00EA7A"></path>
                <path d="M58.006,18.841 L48.006,1.52 C47.78,1.129 47.362,0.887 46.91,0.887 L11.315,0.887 C10.863,0.887 10.445,1.129 10.219,1.52 L0.219,18.841 C-0.007,19.233 -0.007,19.715 0.219,20.107 L10.219,37.428 C10.445,37.819 10.863,38.061 11.315,38.061 L46.91,38.061 C47.362,38.061 47.78,37.819 48.006,37.428 L58.006,20.107 C58.232,19.715 58.232,19.233 58.006,18.841 L58.006,18.841 Z M30.563,32.998 L37.641,20.74 L51.795,20.74 L44.718,32.998 L30.563,32.998 L30.563,32.998 Z M13.507,5.95 L27.662,5.95 L20.585,18.208 L6.43,18.208 L13.507,5.95 L13.507,5.95 Z M6.43,20.74 L21.315,20.74 C21.767,20.74 22.185,20.498 22.411,20.107 L30.585,5.95 L44.718,5.95 L51.795,18.208 L36.91,18.208 C36.458,18.208 36.04,18.45 35.814,18.841 L27.64,32.998 L13.507,32.998 L6.43,20.74 L6.43,20.74 Z" id="Fill-3" fill="#3B1734"></path>
                <path d="M74.083,8.957 C79.309,8.957 82.26,12.709 82.26,18.567 C82.26,19.284 82.217,19.958 82.133,20.464 L68.308,20.464 C68.561,24.889 71.217,27.671 75.136,27.671 C77.075,27.671 78.719,27.039 80.237,26.07 L81.459,28.346 C79.688,29.484 77.497,30.453 74.715,30.453 C69.236,30.453 64.895,26.449 64.895,19.747 C64.895,13.046 69.404,8.957 74.083,8.957 L74.083,8.957 Z M79.225,18.188 C79.225,14.015 77.37,11.697 74.167,11.697 C71.301,11.697 68.688,14.057 68.266,18.188 L79.225,18.188 L79.225,18.188 Z" id="Fill-4" fill="#3B1734"></path>
                <path d="M89.088,31.675 L89.088,38.588 L85.632,38.588 L85.632,9.463 L88.498,9.463 L88.793,11.824 L88.92,11.824 C90.774,10.264 93.05,8.957 95.453,8.957 C100.721,8.957 103.545,13.046 103.545,19.41 C103.545,26.365 99.373,30.453 94.694,30.453 C92.797,30.453 90.901,29.568 89.004,28.093 L89.088,31.675 L89.088,31.675 Z M94.104,27.545 C97.476,27.545 99.962,24.468 99.962,19.41 C99.962,14.9 98.445,11.866 94.567,11.866 C92.839,11.866 91.111,12.835 89.088,14.647 L89.088,25.395 C90.943,26.955 92.755,27.545 94.104,27.545 L94.104,27.545 Z" id="Fill-5" fill="#3B1734"></path>
                <path d="M106.707,3.015 C106.707,1.666 107.761,0.781 109.11,0.781 C110.458,0.781 111.512,1.666 111.512,3.015 C111.512,4.321 110.458,5.248 109.11,5.248 C107.761,5.248 106.707,4.321 106.707,3.015 L106.707,3.015 Z M107.339,9.463 L110.795,9.463 L110.795,29.947 L107.339,29.947 L107.339,9.463 Z" id="Fill-6" fill="#3B1734"></path>
                <path d="M124.367,8.957 C127.065,8.957 128.961,10.095 130.352,11.402 L128.624,13.636 C127.402,12.582 126.137,11.824 124.494,11.824 C120.785,11.824 118.087,15.027 118.087,19.747 C118.087,24.426 120.658,27.587 124.409,27.587 C126.348,27.587 127.992,26.618 129.214,25.522 L130.774,27.798 C128.919,29.441 126.559,30.453 124.114,30.453 C118.677,30.453 114.505,26.533 114.505,19.747 C114.505,12.877 119.099,8.957 124.367,8.957" id="Fill-7" fill="#3B1734"></path>
                <path d="M153.662,16.966 C153.662,14.352 152.777,11.824 149.447,11.824 C147.044,11.824 144.937,12.919 143.335,14.015 L141.944,11.613 C143.841,10.39 146.707,8.957 149.995,8.957 C155.01,8.957 157.118,12.287 157.118,17.387 L157.118,29.947 L154.252,29.947 L153.957,27.503 L153.873,27.503 C151.892,29.104 149.616,30.453 147.087,30.453 C143.63,30.453 141.059,28.303 141.059,24.637 C141.059,20.169 144.937,17.935 153.662,16.966 L153.662,16.966 Z M148.056,27.671 C150.037,27.671 151.681,26.702 153.662,24.932 L153.662,19.242 C146.792,20.085 144.473,21.771 144.473,24.384 C144.473,26.702 146.033,27.671 148.056,27.671 L148.056,27.671 Z" id="Fill-8" fill="#3B1734"></path>
                <path d="M160.364,9.463 L163.905,9.463 L166.939,21.307 C167.403,23.246 167.782,25.1 168.162,26.997 L168.33,26.997 C168.794,25.1 169.215,23.204 169.721,21.307 L172.882,9.463 L176.254,9.463 L179.458,21.307 C179.963,23.246 180.427,25.1 180.891,26.997 L181.059,26.997 C181.523,25.1 181.902,23.246 182.323,21.307 L185.316,9.463 L188.604,9.463 L183.124,29.947 L178.909,29.947 L175.959,18.947 C175.453,17.008 175.074,15.111 174.568,13.046 L174.4,13.046 C173.936,15.111 173.514,17.05 172.966,18.989 L170.1,29.947 L166.054,29.947 L160.364,9.463" id="Fill-9" fill="#3B1734"></path>
                <path d="M199.732,8.957 C204.959,8.957 207.909,12.709 207.909,18.567 C207.909,19.284 207.867,19.958 207.783,20.464 L193.958,20.464 C194.211,24.889 196.866,27.671 200.786,27.671 C202.725,27.671 204.369,27.039 205.886,26.07 L207.108,28.346 C205.338,29.484 203.146,30.453 200.364,30.453 C194.885,30.453 190.544,26.449 190.544,19.747 C190.544,13.046 195.054,8.957 199.732,8.957 L199.732,8.957 Z M204.874,18.188 C204.874,14.015 203.02,11.697 199.817,11.697 C196.95,11.697 194.337,14.057 193.916,18.188 L204.874,18.188 L204.874,18.188 Z" id="Fill-10" fill="#3B1734"></path>
                <path d="M212.419,25.311 C214.19,26.744 216.002,27.756 218.447,27.756 C221.144,27.756 222.493,26.323 222.493,24.552 C222.493,22.445 220.048,21.518 217.814,20.675 C214.906,19.621 211.703,18.23 211.703,14.774 C211.703,11.486 214.316,8.957 218.742,8.957 C221.313,8.957 223.547,10.011 225.106,11.276 L223.462,13.467 C222.071,12.414 220.596,11.655 218.784,11.655 C216.213,11.655 215.033,13.046 215.033,14.605 C215.033,16.502 217.267,17.261 219.585,18.146 C222.535,19.242 225.823,20.464 225.823,24.341 C225.823,27.671 223.167,30.453 218.32,30.453 C215.412,30.453 212.63,29.231 210.691,27.629 L212.419,25.311" id="Fill-11" fill="#3B1734"></path>
                <path d="M237.751,8.957 C242.767,8.957 247.235,12.877 247.235,19.747 C247.235,26.533 242.767,30.453 237.751,30.453 C232.736,30.453 228.268,26.533 228.268,19.747 C228.268,12.877 232.736,8.957 237.751,8.957 L237.751,8.957 Z M237.751,27.587 C241.292,27.587 243.652,24.426 243.652,19.747 C243.652,15.027 241.292,11.824 237.751,11.824 C234.253,11.824 231.85,15.027 231.85,19.747 C231.85,24.426 234.253,27.587 237.751,27.587 L237.751,27.587 Z" id="Fill-12" fill="#3B1734"></path>
                <path d="M250.945,9.463 L253.811,9.463 L254.106,12.414 L254.232,12.414 C256.003,10.475 258.152,8.957 260.597,8.957 C263.716,8.957 265.402,10.433 266.245,12.877 C268.394,10.559 270.502,8.957 272.989,8.957 C277.203,8.957 279.226,11.739 279.226,16.966 L279.226,29.947 L275.77,29.947 L275.77,17.429 C275.77,13.594 274.548,11.95 271.977,11.95 C270.375,11.95 268.732,13.003 266.835,15.111 L266.835,29.947 L263.379,29.947 L263.379,17.429 C263.379,13.594 262.156,11.95 259.543,11.95 C258.026,11.95 256.298,13.003 254.401,15.111 L254.401,29.947 L250.945,29.947 L250.945,9.463" id="Fill-13" fill="#3B1734"></path>
                <path d="M291.872,8.957 C297.099,8.957 300.049,12.709 300.049,18.567 C300.049,19.284 300.007,19.958 299.923,20.464 L286.098,20.464 C286.351,24.889 289.006,27.671 292.926,27.671 C294.865,27.671 296.509,27.039 298.026,26.07 L299.248,28.346 C297.478,29.484 295.286,30.453 292.505,30.453 C287.026,30.453 282.684,26.449 282.684,19.747 C282.684,13.046 287.194,8.957 291.872,8.957 L291.872,8.957 Z M297.015,18.188 C297.015,14.015 295.16,11.697 291.957,11.697 C289.091,11.697 286.477,14.057 286.056,18.188 L297.015,18.188 L297.015,18.188 Z" id="Fill-14" fill="#3B1734"></path>
            </g>
        </g>
    </g>
</svg>