<?xml version="1.0" encoding="UTF-8"?>
<svg width="138px" height="25px" viewBox="0 0 138 25" version="1.1" xmlns="http://www.w3.org/2000/svg" xmlns:xlink="http://www.w3.org/1999/xlink">
    <!-- Generator: Sketch 48.2 (47327) - http://www.bohemiancoding.com/sketch -->
    <title>Logo</title>
    <desc>Created with Sketch.</desc>
    <defs></defs>
    <g id="Home---Pequenas-Empresas" stroke="none" stroke-width="1" fill="none" fill-rule="evenodd" transform="translate(-164.000000, -64.000000)">
        <g id="header">
            <g id="Logo" transform="translate(164.000000, 64.000000)">
                <path d="M7.27266709,2.5916427 L3.32370758,2.5916427 L3.32370758,4.84021552 C3.32370758,6.27408805 2.53391568,7.38208045 0.822699897,7.38208045 L0,7.38208045 L0,11.2274659 L2.92881163,11.2274659 L2.92881163,18.6901206 C2.92881163,21.7859817 4.90329139,23.6434984 8.06245899,23.6434984 C9.34587083,23.6434984 10.1356627,23.4153823 10.5305587,23.2524422 L10.5305587,19.6677609 C10.3002027,19.732937 9.70785879,19.798113 9.18133085,19.798113 C7.93082701,19.798113 7.27266709,19.3418808 7.27266709,17.9405963 L7.27266709,11.2274659 L10.5305587,11.2274659 L10.5305587,7.38208045 L7.27266709,7.38208045 L7.27266709,2.5916427 Z M13.2930518,19.3705226 C13.2930518,16.5027776 15.4320715,14.905965 18.1305272,14.5149089 L22.1123947,13.9283246 C23.0338186,13.7979726 23.3299905,13.3417404 23.3299905,12.7877442 C23.3299905,11.6471638 22.4414746,10.7021115 20.5986269,10.7021115 C18.6899631,10.7021115 17.6369072,11.9078679 17.5052753,13.3091524 L13.6221317,12.4944521 C13.8853957,9.9851752 16.2218634,7.21519419 20.5657189,7.21519419 C25.6993662,7.21519419 27.60803,10.0829392 27.60803,13.3091524 L27.60803,21.1954513 C27.60803,22.0427396 27.706754,23.18332 27.805478,23.7373162 L23.7907025,23.7373162 C23.6919785,23.3136721 23.6261625,22.4337957 23.6261625,21.8146235 C22.8034626,23.085556 21.2567868,24.1935484 18.8545031,24.1935484 C15.3991635,24.1935484 13.2930518,21.8797995 13.2930518,19.3705226 Z M19.4893333,20.8942668 C21.3321811,20.8942668 23.0433968,20.0143905 23.0433968,17.1792334 L23.0433968,16.4622972 L19.3906093,17.0162934 C18.2717374,17.1792334 17.3832216,17.7984056 17.3832216,19.0367501 C17.3832216,19.9818024 18.0742895,20.8942668 19.4893333,20.8942668 Z M36.0755792,23.6167236 L36.0755792,0.0230029893 L31.6988158,0.0230029893 L31.6988158,23.6167236 L36.0755792,23.6167236 Z M56.5988118,7.58342175 L50.8728205,7.58342175 L45.2784612,13.5470279 L45.2784612,0.0230029893 L40.9016978,0.0230029893 L40.9016978,23.6167236 L45.2784612,23.6167236 L45.2784612,19.3802821 L47.088401,17.4901774 L51.3664405,23.6167236 L56.7304438,23.6167236 L50.1159366,14.3291402 L56.5988118,7.58342175 Z M89.5007264,3.09819553 L85.5883209,3.09819553 L85.5883209,5.30206658 C85.5883209,6.70743362 84.8058398,7.79339907 83.110464,7.79339907 L82.2953795,7.79339907 L82.2953795,11.562338 L85.1970803,11.562338 L85.1970803,18.8766346 C85.1970803,21.9109498 87.1532831,23.731539 90.2832076,23.731539 C91.5547394,23.731539 92.3372205,23.5079578 92.728461,23.348257 L92.728461,19.8348394 C92.5002374,19.8987197 91.9133765,19.9626001 91.3917225,19.9626001 C90.152794,19.9626001 89.5007264,19.5154378 89.5007264,18.1420109 L89.5007264,11.562338 L92.728461,11.562338 L92.728461,7.79339907 L89.5007264,7.79339907 L89.5007264,3.09819553 Z M100.748892,23.5079578 L100.748892,7.79339907 L96.4126429,7.79339907 L96.4126429,23.5079578 L100.748892,23.5079578 Z M95.8909889,2.65103329 C95.8909889,4.05640033 97.0973139,5.23818626 98.564466,5.23818626 C100.064221,5.23818626 101.237943,4.05640033 101.237943,2.65103329 C101.237943,1.18178592 100.064221,0 98.564466,0 C97.0973139,0 95.8909889,1.18178592 95.8909889,2.65103329 Z M120.506541,7.79339907 L115.942067,7.79339907 L112.127472,18.3336519 L108.14986,7.79339907 L103.389766,7.79339907 L109.943046,23.5079578 L114.279295,23.5079578 L120.506541,7.79339907 Z M133.645448,18.1320296 L137.264423,19.1860549 C136.449339,21.9009685 133.906275,24.1687199 129.961266,24.1687199 C125.55981,24.1687199 121.680008,21.0705244 121.680008,15.7684578 C121.680008,10.7538527 125.462,7.49595633 129.570026,7.49595633 C134.52574,7.49595633 137.492647,10.5941519 137.492647,15.6406972 C137.492647,16.2475602 137.42744,16.8863634 137.42744,16.9502437 L125.951051,16.9502437 C126.048861,19.0263541 127.842047,20.5275417 129.99387,20.5275417 C132.015279,20.5275417 133.123794,19.5373967 133.645448,18.1320296 Z M125.823529,14.1129032 L133.433824,14.1129032 C133.364639,12.5852178 132.257687,11.0887097 129.628676,11.0887097 C127.241811,11.0887097 125.927306,12.7099268 125.823529,14.1129032 Z" id="talkative" fill="#FFFFFF"></path>
                <g id="Icon" transform="translate(58.345588, 3.024194)">
                    <path d="M0.000140022662,10.5970897 C-0.0297802704,16.4193248 4.73916506,21.1179191 10.6544118,21.1486816 C12.7114933,21.150689 14.7255332,20.6054804 16.4455697,19.4949222 C16.9041643,19.218868 17.4567738,19.1373281 17.9774505,19.2688864 C18.4664637,19.3672785 18.6452206,19.8462702 19.3111213,20.5078125 C19.9770221,21.1693548 20.6429228,21.1693548 21.3086835,20.5078125 C21.3085434,20.1770413 21.3086835,11.7671574 21.3086835,10.5970897 C21.3386065,4.77588754 16.569952,0.0322251365 10.6557626,0 C4.74051589,0.0307624679 -0.0297802704,4.77485472 0.000140022662,10.5970897 Z" id="Path" fill="#26EAC7"></path>
                    <path d="M13.6276655,17.2239273 L7.98645351,17.2239273 C7.81549024,17.2099842 7.68455784,17.0683394 7.68656149,16.8994995 C7.68656149,15.5698772 9.12658351,13.9238048 10.8070595,13.9238048 C12.4875355,13.9238048 13.9275575,15.5751956 13.9275575,16.8994995 C13.9296726,17.0674012 13.8002594,17.2086752 13.6303672,17.2239273 L13.6276655,17.2239273 Z" id="Path" fill="#FFFFFF"></path>
                    <path d="M8.62676348,11.2353085 C8.62676348,10.0500996 9.60291525,9.08929806 10.8070595,9.08929806 C12.0112037,9.08929806 12.9873555,10.0500996 12.9873555,11.2353085 C12.9873555,12.4205173 12.0112037,13.3813189 10.8070595,13.3813189 C9.60353239,13.3798537 8.62825208,12.4199098 8.62676348,11.2353085 L8.62676348,11.2353085 Z" id="Path" fill="#FFFFFF"></path>
                    <path d="M13.8275935,14.5008608 C13.7459244,14.4209909 13.6999989,14.3123544 13.6999989,14.1990366 C13.6999989,14.0857187 13.7459244,13.9770823 13.8275935,13.8972123 C15.4940418,12.2561724 15.4936043,9.59623328 13.8266162,7.95572454 C12.1596281,6.3152158 9.45719261,6.3152158 7.79020452,7.95572454 C6.12321643,9.59623328 6.12277891,12.2561724 7.78922723,13.8972123 C7.95858331,14.0631709 7.9591881,14.3328383 7.79057807,14.4995312 C7.62196805,14.6662241 7.34799237,14.6668194 7.17863628,14.5008608 C5.17505473,12.5273258 5.17585646,9.32889864 7.18042715,7.35633697 C9.18499784,5.38377531 12.4345246,5.38377531 14.4390953,7.35633697 C16.443666,9.32889864 16.4444677,12.5273258 14.4408862,14.5008608 C14.2694824,14.6626149 13.9989972,14.6626149 13.8275935,14.5008608 L13.8275935,14.5008608 Z" id="Path" fill="#FFFFFF"></path>
                    <path d="M16.2105192,16.2453253 L16.2105192,16.2453253 C16.0411631,16.4112839 15.7671874,16.4106886 15.5985774,16.2439957 C15.4299674,16.0773027 15.4305722,15.8076354 15.5999283,15.6416768 C18.2422232,13.0371629 18.2401536,8.81778085 15.5953049,6.21577939 C12.9504561,3.61377794 8.66366286,3.61377794 6.0188141,6.21577939 C3.37396534,8.81778085 3.37189573,13.0371629 6.0141907,15.6416768 C6.1835468,15.8076354 6.1841516,16.0773027 6.01554157,16.2439957 C5.84693153,16.4106886 5.57295585,16.4112839 5.40359975,16.2453253 C2.42046515,13.308214 2.42095225,8.54700866 5.40468776,5.61048872 C8.38842327,2.67396878 13.2256957,2.67396878 16.2094312,5.61048872 C19.1931667,8.54700866 19.1936538,13.308214 16.2105192,16.2453253 L16.2105192,16.2453253 Z" id="Path" fill="#FFFFFF"></path>
                </g>
            </g>
        </g>
    </g>
</svg>